<svg id="Layer_1" data-name="Layer 1" xmlns="http://www.w3.org/2000/svg" viewBox="0 0 160 160"><defs><style>.cls-1{fill:#19242d;}</style></defs><path class="cls-1" d="M131.3,110.7q-6.93,3.31-14,6.24c-8.56,3.54-17.27,6.68-26.1,9.49q-9.75,3.1-19.66,5.71l-5.44,1.41a1.26,1.26,0,0,0-.27,0c-2.61.67-5.24,1.26-7.87,1.85-3.66.82-7.33,1.57-11,2.28S39.72,139,36.12,139.6c-1.64.27-3.28.56-4.91.77-3.58.45-7.17.76-10.77,1-2.6.16-5.21.29-7.81.4-1.9.08-3.81.13-5.71.19-.36,0-.73,0-1.1.07.2.71.2.7.89.72,1.63.05,3.27.1,4.9.17,2.73.1,5.46.21,8.18.23a.06.06,0,0,0,.09,0c.75,0,1.49.1,2.24,0h.06c.17,0,.34,0,.52,0,4.06,0,8.11,0,12.17-.15a1,1,0,0,1,.63.18,77.31,77.31,0,0,0,45.37,13.53c2.23-.06,4.44-.19,6.65-.42a75.61,75.61,0,0,0,11-2A77.29,77.29,0,0,0,132,136c1.23-1.16,2.43-2.35,3.58-3.57a76.77,76.77,0,0,0,18-31.7c.22-.79.42-1.58.64-2.45l-.38.22q-2.79,1.74-5.65,3.38C142.65,105.06,137,108,131.3,110.7Z"/><path class="cls-1" d="M156.81,69.82c-.09-.55-.15-1.1-.24-1.65a77.77,77.77,0,0,0-2.69-11.38,76.25,76.25,0,0,0-14-25.65A77.19,77.19,0,0,0,96.68,4.94a74.06,74.06,0,0,0-9.93-1.46c-2.43-.19-4.86-.28-7.29-.25a75,75,0,0,0-8.08.5c-2,.22-3.9.5-5.83.9A75.73,75.73,0,0,0,45,11.72a76.76,76.76,0,0,0-19.23,14A76.95,76.95,0,0,0,6.71,57,76.92,76.92,0,0,0,3.38,85.51a1.46,1.46,0,0,0,.21.67,21.45,21.45,0,0,0,2.81,3.5,26.88,26.88,0,0,0,8.94,5.86A51.11,51.11,0,0,0,31.7,99.12a71.31,71.31,0,0,0,8.14,0,88.64,88.64,0,0,0,9.76-1A93.46,93.46,0,0,0,64.35,94.6c2.74-.89,5.44-1.87,8.1-3,1.34-.58,2.72-1.09,4-1.72l.15,0a98.35,98.35,0,0,0,20-11.44,1,1,0,0,0,.38-.58,2,2,0,0,0-1.76-2.11,2.66,2.66,0,0,0-1.61.6c-3.69,2.19-7.34,4.44-11.13,6.47-2,1.07-4,2-6.07,3-1.28.55-2.55,1.12-3.84,1.65a127.74,127.74,0,0,1-13.33,4.71,88.62,88.62,0,0,1-16.46,3.32,65.19,65.19,0,0,1-9.68.24,38.8,38.8,0,0,1-10.73-2.08,28.32,28.32,0,0,1-11.71-7.51,31.86,31.86,0,0,1-5.65-8.66A.89.89,0,0,1,5,76.88a1.06,1.06,0,0,1,.19.16,31.06,31.06,0,0,0,4.12,3.74,42.24,42.24,0,0,0,9,5.33A54.35,54.35,0,0,0,31.65,90a57.2,57.2,0,0,0,6.78.66,76.38,76.38,0,0,0,8.82-.19,83.86,83.86,0,0,0,10.92-1.63c2.52-.54,5-1.17,7.47-1.94.87-.26,1.74-.51,2.6-.79A144.93,144.93,0,0,0,93.6,74.9c.33-.17.27-.25,0-.42-1.59-1-3.16-2-4.74-3l-1.06-.68a14.27,14.27,0,0,0,1.58-1.14,1.3,1.3,0,0,1,.9-.27,3.32,3.32,0,0,1,1.07.28c2,.82,4,1.56,6,2.32A1.56,1.56,0,0,0,99,71.74c2.07-1.59,4.18-3.14,6.28-4.71l2.26-1.71c.26-.19.3-.36,0-.53l-.34-.22L83.9,49.78c-.47-.29-.46-.29,0-.65a2.38,2.38,0,0,1,2.7-.6c2.14.91,4.32,1.7,6.51,2.5,1.21.44,2.37,1,3.62,1.35a2.06,2.06,0,0,0,2-.32,16.07,16.07,0,0,1,1.34-1c.59-.41.77-.38,1.2.2l.23.37a.53.53,0,0,1-.19.76c-.42.3-.82.64-1.22,1-.18.14-.25.23,0,.34,2,.75,4,1.51,6,2.27a1.45,1.45,0,0,0,1.56-.29c.64-.54,1.3-1,2-1.58.16-.14.25-.14.37,0a9.08,9.08,0,0,0,.72,1c.22.26.16.41-.09.6-.54.41-1.06.84-1.61,1.28l.3.13c1.84.69,3.69,1.37,5.52,2.09a1.35,1.35,0,0,0,1.32-.13c1.39-.85,2.8-1.68,4.2-2.53a14.44,14.44,0,0,1,5.6-2.18A1.39,1.39,0,0,1,127.47,56a3.28,3.28,0,0,1-1,1.88c-1.57,1.46-3.13,2.91-4.7,4.35-.71.64-1.42,1.28-2.14,1.9a.9.9,0,0,0-.33.8c.08,1.09.11,2.19.18,3.28s.15,2,.23,2.92a.67.67,0,0,0,.38-.14c.52-.32,1-.65,1.55-1,.19-.12.29-.12.41.08s.4.65.62,1a.23.23,0,0,1,0,.34,2.5,2.5,0,0,1-.82.63,3.12,3.12,0,0,0-1.93,3.56c.21,1.56.38,3.12.45,4.69,0,.12-.08.28.08.35s.25,0,.35-.12c.48-.34,1-.64,1.48-.94.16-.09.21-.1.31,0,.27.36.53.72.81,1.07.11.14.1.21,0,.31-.69.46-1.36,1-2.06,1.4a1.33,1.33,0,0,0-.71,1.24c0,.78.06,1.56.11,2.34.1,1.5.2,3,.32,4.5.08,1,.2,2.07.29,3.11a6.51,6.51,0,0,1,.08,1.46c-.15,1.07-1,1.55-1.79,2-.18.1-.15,0-.18-.14-.42-1.46-.84-2.93-1.27-4.39q-3.24-11.07-6.47-22.14c-.18-.59-.18-.6-.71-.27-2.92,1.8-5.83,3.61-8.8,5.33a1.23,1.23,0,0,0-.68,1.23c0,.52.06,1,.11,1.54.06.79.12,1.58.17,2.38.07,1.35.19,2.71.29,4.06a.75.75,0,0,1-.32.73c-.53.36-1.07.73-1.59,1.12-.25.18-.33.18-.43-.15-.72-2.49-1.47-5-2.19-7.47-.09-.31-.15-.43-.45-.15-.94.86-1.92,1.68-2.86,2.54A89.49,89.49,0,0,1,82,90.63c-1.49,1-3,1.83-4.53,2.76-1,.54-2,1.09-3,1.61a112.09,112.09,0,0,1-26.36,9.85A100.86,100.86,0,0,1,37,106.78a83.64,83.64,0,0,1-9.23.6A66.38,66.38,0,0,1,17,106.61,52,52,0,0,1,7.6,104.3a1,1,0,0,0-.5-.12l.14.43A76.48,76.48,0,0,0,19.35,127,77.84,77.84,0,0,0,26.47,135a.42.42,0,0,0,.45.13c.81-.2,1.63-.37,2.45-.55,7.2-1.58,14.33-3.42,21.43-5.4,6.21-1.73,12.39-3.55,18.52-5.54,2.75-.89,5.5-1.8,8.22-2.79.1,0,.2,0,.3-.09,3.33-1.18,6.64-2.4,9.93-3.71,4.42-1.75,8.81-3.56,13.12-5.57,2.19-1,4.39-2,6.56-3.07,3.67-1.81,7.32-3.68,10.89-5.69,1.18-.66,2.36-1.31,3.52-2,2.18-1.3,4.37-2.6,6.52-3.94a126.53,126.53,0,0,0,11.87-8.41,88.59,88.59,0,0,0,10.92-10.29,42.61,42.61,0,0,0,5.51-7.64A1,1,0,0,0,156.81,69.82Z"/></svg>