<svg id="Layer_1" data-name="Layer 1" xmlns="http://www.w3.org/2000/svg" viewBox="0 0 160 160"><defs><style>.cls-1{fill:#dcb870;}</style></defs><path class="cls-1" d="M130.54,112.43q-6.94,3.31-14,6.25c-8.56,3.54-17.26,6.67-26.09,9.48q-9.77,3.12-19.67,5.71l-5.43,1.41-.28,0c-2.61.67-5.23,1.27-7.86,1.86q-5.49,1.22-11,2.27c-3.59.68-7.19,1.29-10.8,1.88-1.63.27-3.27.56-4.91.77-3.57.46-7.17.76-10.76,1-2.61.16-5.21.28-7.82.39-1.9.09-3.8.13-5.7.19l-1.11.07c.21.72.21.71.89.73l4.91.16c2.73.11,5.45.22,8.18.23,0,0,.06,0,.09,0,.75,0,1.49.09,2.24,0h.06l.51,0c4.06,0,8.12,0,12.18-.15a1,1,0,0,1,.62.18,77.12,77.12,0,0,0,45.38,13.53q3.33-.08,6.65-.41a74.18,74.18,0,0,0,11-2,76.6,76.6,0,0,0,24.32-11,78.39,78.39,0,0,0,9.19-7.36q1.84-1.72,3.58-3.57a75,75,0,0,0,7.77-9.73,76.34,76.34,0,0,0,10.19-22c.22-.78.41-1.58.64-2.44l-.39.22c-1.86,1.15-3.74,2.28-5.64,3.37C141.89,106.79,136.26,109.7,130.54,112.43Z"/><path class="cls-1" d="M155,71.55c-.08-.55-.15-1.1-.24-1.65A77.05,77.05,0,0,0,94.84,6.67,75.61,75.61,0,0,0,84.9,5.21Q81.27,4.92,77.61,5a78,78,0,0,0-8.08.5c-2,.23-3.9.51-5.83.91a75.94,75.94,0,0,0-20.53,7.08A76.66,76.66,0,0,0,1.38,79.1a79,79,0,0,0,.16,8.14,1.26,1.26,0,0,0,.21.67,20.61,20.61,0,0,0,2.81,3.51,26.83,26.83,0,0,0,8.94,5.86,51.53,51.53,0,0,0,16.36,3.58,76.21,76.21,0,0,0,8.14,0,88.88,88.88,0,0,0,9.76-1A95.6,95.6,0,0,0,62.5,96.34c2.74-.9,5.45-1.87,8.1-3,1.35-.57,2.73-1.08,4.05-1.71l.16,0a98.74,98.74,0,0,0,20-11.44,1,1,0,0,0,.38-.58,2,2,0,0,0-1.75-2.11,2.74,2.74,0,0,0-1.62.59c-3.69,2.19-7.34,4.45-11.12,6.48-2,1.06-4,2-6.07,3-1.28.55-2.55,1.11-3.84,1.65a127.68,127.68,0,0,1-13.33,4.7A88.8,88.8,0,0,1,41,97.22a64,64,0,0,1-9.69.23A38.93,38.93,0,0,1,20.6,95.38,28.39,28.39,0,0,1,8.9,87.87a31.7,31.7,0,0,1-5.65-8.66.92.92,0,0,1-.11-.6,1.62,1.62,0,0,1,.19.17,32.41,32.41,0,0,0,4.11,3.74,43.16,43.16,0,0,0,9,5.33A54.25,54.25,0,0,0,29.8,91.74a59.57,59.57,0,0,0,6.79.67,76.39,76.39,0,0,0,8.82-.2,82,82,0,0,0,10.91-1.62c2.52-.54,5-1.17,7.48-2,.86-.26,1.73-.5,2.59-.78A145.77,145.77,0,0,0,91.76,76.64c.32-.18.27-.26,0-.43L87,73.2l-1-.68a15.53,15.53,0,0,0,1.57-1.14,1.27,1.27,0,0,1,.9-.27,3.12,3.12,0,0,1,1.08.27c2,.83,4,1.56,6,2.32a1.53,1.53,0,0,0,1.66-.22c2.07-1.6,4.18-3.15,6.28-4.72.75-.56,1.5-1.14,2.26-1.7.25-.19.3-.36,0-.54a3.87,3.87,0,0,1-.34-.21L82.06,51.52c-.47-.3-.46-.29,0-.66a2.42,2.42,0,0,1,2.71-.6c2.13.92,4.32,1.7,6.5,2.5,1.21.45,2.38,1,3.62,1.36a2.1,2.1,0,0,0,2-.33,12.86,12.86,0,0,1,1.34-1c.59-.41.77-.39,1.19.2a2.85,2.85,0,0,1,.23.37.51.51,0,0,1-.18.75c-.42.3-.82.64-1.23,1-.17.13-.24.23,0,.33l6,2.28a1.44,1.44,0,0,0,1.55-.3c.64-.54,1.31-1,2-1.58.17-.13.25-.13.37,0,.23.34.47.68.73,1s.16.41-.09.59c-.54.41-1.06.84-1.61,1.29l.3.12c1.84.69,3.68,1.37,5.52,2.09a1.36,1.36,0,0,0,1.31-.12c1.4-.86,2.81-1.69,4.2-2.53a14.33,14.33,0,0,1,5.61-2.18,1.38,1.38,0,0,1,1.52,1.56,3.31,3.31,0,0,1-1,1.89l-4.71,4.34c-.7.65-1.41,1.28-2.13,1.91a.86.86,0,0,0-.33.79c.07,1.09.11,2.19.18,3.29s.15,1.94.23,2.91a.61.61,0,0,0,.38-.14c.52-.32,1-.64,1.55-1,.18-.13.28-.13.4.08s.41.65.63,1a.23.23,0,0,1,0,.35,2.31,2.31,0,0,1-.81.62,3.14,3.14,0,0,0-1.93,3.57c.21,1.55.38,3.11.44,4.68,0,.12-.08.29.08.36s.26-.06.36-.13c.48-.33,1-.64,1.48-.93.15-.09.21-.11.31,0,.26.36.53.73.81,1.08.11.14.1.2,0,.3-.69.47-1.36,1-2.07,1.41a1.34,1.34,0,0,0-.7,1.23c0,.78.06,1.56.11,2.34.1,1.5.2,3,.32,4.51.08,1,.2,2.07.29,3.11a6.44,6.44,0,0,1,.08,1.46c-.16,1.06-1,1.55-1.8,2-.17.09-.14,0-.17-.14-.42-1.47-.85-2.94-1.27-4.4l-6.48-22.14c-.17-.59-.17-.59-.71-.26-2.92,1.79-5.83,3.6-8.79,5.33a1.2,1.2,0,0,0-.68,1.23c0,.51.06,1,.1,1.54.07.79.13,1.58.17,2.37.08,1.36.2,2.71.3,4.07a.76.76,0,0,1-.32.72c-.54.37-1.07.73-1.59,1.12-.25.18-.34.19-.43-.15-.72-2.49-1.47-5-2.2-7.46-.09-.32-.15-.43-.45-.16-.94.86-1.91,1.69-2.85,2.55a90.13,90.13,0,0,1-12.25,9.41c-1.48,1-3,1.84-4.52,2.76-1,.54-2,1.09-3,1.62a113,113,0,0,1-26.36,9.85,100.83,100.83,0,0,1-11.07,1.92,86.33,86.33,0,0,1-9.23.61,65.47,65.47,0,0,1-10.74-.78A51.7,51.7,0,0,1,5.76,106a.91.91,0,0,0-.5-.13c0,.16.09.3.14.44a76.48,76.48,0,0,0,12.11,22.42,78.8,78.8,0,0,0,7.12,7.94.4.4,0,0,0,.45.14c.81-.2,1.63-.38,2.45-.56,7.2-1.58,14.33-3.42,21.43-5.39,6.21-1.73,12.38-3.55,18.51-5.54,2.76-.89,5.5-1.81,8.22-2.8l.31-.08q5-1.77,9.92-3.71c4.43-1.75,8.82-3.56,13.13-5.58,2.18-1,4.39-2,6.55-3.06,3.68-1.82,7.32-3.69,10.9-5.7,1.17-.66,2.36-1.31,3.52-2,2.18-1.3,4.36-2.59,6.52-3.94a126,126,0,0,0,11.87-8.41,87.84,87.84,0,0,0,10.92-10.29,41.65,41.65,0,0,0,5.5-7.63A.89.89,0,0,0,155,71.55Z"/><path class="cls-1" d="M158.66,1.85V1.49h-.37C158.59,1.49,158.66,1.56,158.66,1.85Z"/></svg>