<svg id="Layer_1" data-name="Layer 1" xmlns="http://www.w3.org/2000/svg" viewBox="0 0 320 160"><defs><style>.cls-1{fill:#dcb870;}</style></defs><path class="cls-1" d="M184,127.56q-3.24,1.55-6.55,2.91c-4,1.65-8.05,3.11-12.16,4.42-3,1-6.09,1.85-9.17,2.66-.84.23-1.69.44-2.53.66l-.13,0c-1.22.31-2.44.59-3.67.87q-2.55.57-5.13,1.06c-1.67.31-3.35.6-5,.87-.76.13-1.53.26-2.29.36-1.67.21-3.34.36-5,.46-1.21.08-2.43.13-3.64.19-.89,0-1.77.05-2.66.08l-.52,0c.1.33.1.33.42.34l2.29.07c1.27.05,2.54.1,3.81.11,0,0,0,0,0,0,.35,0,.7,0,1,0h.27c1.9,0,3.79,0,5.68-.07a.44.44,0,0,1,.29.09,37,37,0,0,0,5.59,3.15,35.84,35.84,0,0,0,8.66,2.64,34.65,34.65,0,0,0,6.9.51c1,0,2.07-.09,3.1-.19a35.89,35.89,0,0,0,16.45-6,36.43,36.43,0,0,0,4.29-3.43c.57-.54,1.13-1.09,1.67-1.67a35.07,35.07,0,0,0,3.62-4.53,35.64,35.64,0,0,0,4.75-10.24c.1-.37.19-.74.3-1.14l-.18.1c-.87.54-1.75,1.07-2.63,1.57C189.3,124.93,186.68,126.29,184,127.56Z"/><path class="cls-1" d="M195.4,108.5c0-.25-.07-.51-.11-.76a36,36,0,0,0-1.26-5.31,35.95,35.95,0,0,0-26.66-24.17,34.45,34.45,0,0,0-4.63-.68c-1.13-.09-2.26-.13-3.4-.12a36.5,36.5,0,0,0-3.77.23c-.91.11-1.82.24-2.71.43a35.32,35.32,0,0,0-9.58,3.3A36,36,0,0,0,130,93.08a35.53,35.53,0,0,0-4.6,9.45A36,36,0,0,0,123.8,112a37.07,37.07,0,0,0,.08,3.8.59.59,0,0,0,.09.31,9.85,9.85,0,0,0,1.31,1.63,12.75,12.75,0,0,0,4.17,2.74,24,24,0,0,0,7.63,1.66,34.23,34.23,0,0,0,3.79,0,43.29,43.29,0,0,0,4.55-.47,43.89,43.89,0,0,0,6.88-1.65c1.27-.42,2.53-.87,3.77-1.4.63-.27,1.27-.5,1.89-.8l.07,0a46.2,46.2,0,0,0,9.34-5.33.44.44,0,0,0,.17-.27.91.91,0,0,0-.82-1,1.3,1.3,0,0,0-.75.27c-1.72,1-3.42,2.08-5.18,3-.93.5-1.88,1-2.83,1.41l-1.79.77a61.79,61.79,0,0,1-6.21,2.19,41.17,41.17,0,0,1-7.68,1.55,30.89,30.89,0,0,1-4.51.11,18.53,18.53,0,0,1-5-1,13.26,13.26,0,0,1-5.45-3.5,15,15,0,0,1-2.64-4,.5.5,0,0,1,0-.28l.09.08a13.78,13.78,0,0,0,1.92,1.74,19.21,19.21,0,0,0,4.21,2.49,25.32,25.32,0,0,0,6.21,1.82,28.11,28.11,0,0,0,3.17.31,37.84,37.84,0,0,0,9.19-.85c1.18-.25,2.34-.55,3.49-.91l1.21-.36a68.54,68.54,0,0,0,11.82-5.23c.16-.09.13-.12,0-.2l-2.21-1.41-.5-.32a5.4,5.4,0,0,0,.74-.53.57.57,0,0,1,.42-.12,1.28,1.28,0,0,1,.5.13c.92.38,1.86.72,2.79,1.08a.7.7,0,0,0,.77-.11c1-.74,2-1.47,2.93-2.2l1.05-.79c.12-.09.14-.17,0-.25l-.16-.1-10.86-6.89c-.22-.14-.21-.14,0-.31a1.12,1.12,0,0,1,1.26-.28c1,.43,2,.79,3,1.17.57.2,1.11.47,1.69.63a1,1,0,0,0,.95-.15,6.74,6.74,0,0,1,.62-.47c.28-.19.36-.18.56.1a1,1,0,0,1,.11.17.24.24,0,0,1-.09.35l-.57.44c-.08.07-.11.11,0,.16l2.8,1.06a.66.66,0,0,0,.72-.14l.91-.73c.08-.07.12-.07.17,0a5.48,5.48,0,0,0,.34.46c.1.13.07.19,0,.28s-.5.39-.75.6l.14.06,2.57,1a.61.61,0,0,0,.61-.06l2-1.18a6.77,6.77,0,0,1,2.61-1,.65.65,0,0,1,.71.73,1.54,1.54,0,0,1-.46.88l-2.19,2-1,.89a.41.41,0,0,0-.16.37c0,.51.05,1,.09,1.53s.07.91.1,1.36a.26.26,0,0,0,.18-.06c.24-.15.49-.3.72-.46s.14-.06.19,0,.19.3.29.44a.1.1,0,0,1,0,.16,1.1,1.1,0,0,1-.38.3,1.45,1.45,0,0,0-.9,1.66c.1.72.18,1.45.21,2.18,0,.06,0,.14,0,.17s.12,0,.17-.06a8.09,8.09,0,0,1,.69-.44c.07,0,.1,0,.14,0s.25.34.38.5,0,.1,0,.14c-.32.22-.64.45-1,.66a.6.6,0,0,0-.32.57c0,.37,0,.73,0,1.09,0,.7.09,1.4.14,2.1,0,.49.1,1,.14,1.45a3.11,3.11,0,0,1,0,.68c-.07.5-.45.73-.84.94-.08,0-.07,0-.08-.06-.2-.69-.39-1.37-.59-2q-1.51-5.16-3-10.32c-.08-.28-.08-.28-.33-.13-1.36.84-2.72,1.68-4.1,2.49a.56.56,0,0,0-.32.57c0,.24,0,.48,0,.72s.06.74.08,1.11c0,.63.09,1.26.14,1.89a.35.35,0,0,1-.15.34c-.25.17-.5.34-.74.52s-.16.09-.2-.07c-.34-1.16-.69-2.32-1-3.48,0-.14-.07-.2-.21-.07l-1.33,1.19a42,42,0,0,1-5.71,4.39c-.69.44-1.4.85-2.1,1.28l-1.41.76a52.74,52.74,0,0,1-12.29,4.59,47.14,47.14,0,0,1-5.16.89,41.21,41.21,0,0,1-4.3.29,31.12,31.12,0,0,1-5-.37,23.93,23.93,0,0,1-4.4-1.07.41.41,0,0,0-.23-.06l.07.2a35.8,35.8,0,0,0,5.64,10.46,36.38,36.38,0,0,0,3.32,3.7.18.18,0,0,0,.21.06l1.14-.26c3.36-.73,6.68-1.59,10-2.51,2.9-.81,5.78-1.66,8.63-2.58,1.29-.42,2.57-.84,3.83-1.31l.15,0q2.32-.83,4.62-1.72c2.07-.82,4.11-1.67,6.12-2.6,1-.48,2-.93,3.06-1.43,1.71-.85,3.41-1.72,5.08-2.66.54-.31,1.1-.61,1.64-.93,1-.61,2-1.21,3-1.84a57.58,57.58,0,0,0,5.53-3.92,39.84,39.84,0,0,0,5.09-4.8,19.46,19.46,0,0,0,2.57-3.55A.49.49,0,0,0,195.4,108.5Z"/><path class="cls-1" d="M149.34,14.48h-6.72V33.75H139.9V14.48h-6.71V12.19h16.15Z"/><path class="cls-1" d="M166.44,33.75h-2.67V24.88c0-3.21-1.28-4.81-3.86-4.81a4.35,4.35,0,0,0-3.28,1.39A5,5,0,0,0,155.3,25v8.72h-2.66V11h2.66v10h.07A6.14,6.14,0,0,1,160.82,18c3.74,0,5.62,2.09,5.62,6.27Z"/><path class="cls-1" d="M184.81,26.67H173.08a5.51,5.51,0,0,0,1.49,4A5.38,5.38,0,0,0,178.5,32a8.6,8.6,0,0,0,5.16-1.72v2.32a10.24,10.24,0,0,1-5.8,1.47,7.3,7.3,0,0,1-5.53-2.1,8.16,8.16,0,0,1-2-5.9,8,8,0,0,1,2.2-5.85A7.29,7.29,0,0,1,178,18,6.53,6.53,0,0,1,183,20a7.74,7.74,0,0,1,1.78,5.43Zm-2.73-2.09A4.77,4.77,0,0,0,181,21.26a3.9,3.9,0,0,0-3-1.19,4.49,4.49,0,0,0-3.2,1.25,5.44,5.44,0,0,0-1.62,3.26Z"/><path class="cls-1" d="M81.42,60.59H67.56V39H72.8V56.66h8.62Z"/><path class="cls-1" d="M86.65,42.76a3.12,3.12,0,0,1-2.13-.71,2.24,2.24,0,0,1-.83-1.75,2.18,2.18,0,0,1,.83-1.75,3.72,3.72,0,0,1,4.26,0,2.17,2.17,0,0,1,.82,1.75,2.2,2.2,0,0,1-.82,1.77A3.21,3.21,0,0,1,86.65,42.76Zm2.53,17.83H84.05V45.2h5.13Z"/><path class="cls-1" d="M98.69,58.81h-.06v1.78H93.5V37.8h5.13v9.71h.06a6.24,6.24,0,0,1,5.41-2.69,6.16,6.16,0,0,1,5,2,8.35,8.35,0,0,1,1.73,5.59,9.07,9.07,0,0,1-2,6.18A6.86,6.86,0,0,1,103.33,61,5.38,5.38,0,0,1,98.69,58.81Zm-.15-6.5v1.58a3.42,3.42,0,0,0,.93,2.46,3.1,3.1,0,0,0,2.37,1,3.24,3.24,0,0,0,2.72-1.25,5.78,5.78,0,0,0,1-3.56,4.54,4.54,0,0,0-.88-3,3.07,3.07,0,0,0-2.52-1.08,3.4,3.4,0,0,0-2.56,1.07A3.86,3.86,0,0,0,98.54,52.31Z"/><path class="cls-1" d="M129.05,54.25H118.2q.27,3.34,4.56,3.35a9.45,9.45,0,0,0,4.82-1.2v3.43a13.52,13.52,0,0,1-6,1.14,8.8,8.8,0,0,1-6.24-2.07,7.46,7.46,0,0,1-2.23-5.76,7.92,7.92,0,0,1,2.4-6.08,8.37,8.37,0,0,1,5.91-2.24,7.61,7.61,0,0,1,5.63,2,7.41,7.41,0,0,1,2,5.43Zm-4.76-2.92q0-3.3-2.89-3.3a2.84,2.84,0,0,0-2.13.94,4.1,4.1,0,0,0-1.1,2.36Z"/><path class="cls-1" d="M142.94,49.48a4.77,4.77,0,0,0-2.16-.46,3.23,3.23,0,0,0-2.61,1.13,4.69,4.69,0,0,0-.94,3.09v7.35H132.1V45.2h5.13v2.86h.06a4.39,4.39,0,0,1,4.38-3.13,3.57,3.57,0,0,1,1.27.18Z"/><path class="cls-1" d="M155.37,60.41A8.09,8.09,0,0,1,152,61c-3.62,0-5.42-1.74-5.42-5.22v-7h-2.7V45.2h2.7V41.88l5.11-1.36V45.2h3.73v3.5h-3.73v6.23c0,1.6.69,2.4,2.06,2.4a3.67,3.67,0,0,0,1.67-.43Z"/><path class="cls-1" d="M174.09,45.2l-6.75,16.63q-2.44,6-7.34,6a9.81,9.81,0,0,1-3.07-.4V63.65a4.6,4.6,0,0,0,2.23.55,2.78,2.78,0,0,0,2.76-1.73l.87-1.91L156,45.2h5.68l3.1,9.37a10.91,10.91,0,0,1,.46,2.06h.06a13.52,13.52,0,0,1,.54-2L169,45.2Z"/><path class="cls-1" d="M216.28,39l-6.16,21.55h-5.81l-3.86-13.83a10.33,10.33,0,0,1-.37-2.42H200a14.38,14.38,0,0,1-.42,2.42l-4,13.83h-6L183.46,39h5.73l3.27,14.35a14.4,14.4,0,0,1,.31,2.47h.1a11,11,0,0,1,.47-2.53L197.56,39h5.62L207,53.51a16.82,16.82,0,0,1,.38,2.32h.06a14.56,14.56,0,0,1,.34-2.41L211,39Z"/><path class="cls-1" d="M232.56,60.59H227.7V58.38h-.06A5.52,5.52,0,0,1,222.69,61a5.43,5.43,0,0,1-3.81-1.27,4.4,4.4,0,0,1-1.39-3.39q0-4.48,5.73-5.17l4.52-.56c0-1.68-1-2.52-3-2.52a10.68,10.68,0,0,0-5.65,1.63V46.12a14,14,0,0,1,2.93-.91,16.64,16.64,0,0,1,3.39-.39q7.11,0,7.11,6.57Zm-4.82-6.25v-1l-3,.36c-1.67.2-2.5.9-2.5,2.09a1.65,1.65,0,0,0,.61,1.33,2.41,2.41,0,0,0,1.64.52,3.19,3.19,0,0,0,2.36-.92A3.24,3.24,0,0,0,227.74,54.34Z"/><path class="cls-1" d="M252.44,45.2l-6.75,16.63q-2.43,6-7.34,6a9.86,9.86,0,0,1-3.07-.4V63.65a4.63,4.63,0,0,0,2.23.55,2.78,2.78,0,0,0,2.76-1.73l.87-1.91L234.39,45.2h5.68l3.1,9.37a10.91,10.91,0,0,1,.46,2.06h.06a13.52,13.52,0,0,1,.54-2l3.13-9.4Z"/></svg>