<svg id="Layer_1" data-name="Layer 1" xmlns="http://www.w3.org/2000/svg" viewBox="0 0 320 160"><defs><style>.cls-1{fill:#dcb870;}</style></defs><path class="cls-1" d="M96,100.16q-4.56,2.18-9.22,4.1c-5.62,2.32-11.34,4.38-17.13,6.23q-6.42,2-12.92,3.74l-3.57.93-.18,0c-1.71.44-3.44.84-5.16,1.22q-3.6.81-7.23,1.5c-2.36.45-4.72.84-7.09,1.23-1.07.18-2.15.37-3.22.51-2.35.3-4.71.5-7.07.64-1.71.11-3.42.19-5.13.27l-3.75.12-.72,0c.13.48.13.47.58.48l3.22.11c1.79.07,3.58.14,5.37.15a0,0,0,0,0,.06,0,14.42,14.42,0,0,0,1.47,0h0l.34,0c2.66,0,5.33,0,8-.1a.6.6,0,0,1,.41.12A50.36,50.36,0,0,0,41,126a49.53,49.53,0,0,0,12.19,3.72,48.8,48.8,0,0,0,9.73.73c1.46,0,2.91-.12,4.36-.27a50.39,50.39,0,0,0,23.18-8.51,51.86,51.86,0,0,0,6-4.83c.81-.76,1.59-1.54,2.35-2.35a50,50,0,0,0,11.79-20.81c.15-.52.28-1,.43-1.61l-.26.15c-1.22.76-2.45,1.5-3.7,2.22C103.47,96.45,99.78,98.36,96,100.16Z"/><path class="cls-1" d="M112.06,73.31c-.06-.36-.1-.72-.16-1.08A50.39,50.39,0,0,0,92.37,39.76,49.5,49.5,0,0,0,84,34.63a50.41,50.41,0,0,0-11.38-3.92,51.24,51.24,0,0,0-6.52-1c-1.6-.12-3.19-.18-4.79-.16a49.79,49.79,0,0,0-5.31.33c-1.28.15-2.56.33-3.82.59a49.87,49.87,0,0,0-13.48,4.65A50.59,50.59,0,0,0,26,44.34,50.46,50.46,0,0,0,13.5,64.9a50.56,50.56,0,0,0-2.28,13.37,47.81,47.81,0,0,0,.1,5.35.84.84,0,0,0,.14.43,13.24,13.24,0,0,0,1.84,2.31,17.8,17.8,0,0,0,5.87,3.85,33.83,33.83,0,0,0,10.74,2.34,47.74,47.74,0,0,0,5.35,0,60,60,0,0,0,6.41-.65,63.17,63.17,0,0,0,9.68-2.33c1.8-.59,3.57-1.23,5.32-2,.88-.38,1.79-.71,2.66-1.12l.1,0A65.37,65.37,0,0,0,72.58,79a.66.66,0,0,0,.25-.38,1.3,1.3,0,0,0-1.16-1.39,1.83,1.83,0,0,0-1.06.39c-2.42,1.44-4.82,2.92-7.3,4.25-1.31.7-2.65,1.34-4,2L56.8,84.9A84.83,84.83,0,0,1,48.05,88a58.54,58.54,0,0,1-10.81,2.19,42.2,42.2,0,0,1-6.36.15,25.6,25.6,0,0,1-7-1.36A18.72,18.72,0,0,1,16.15,84a21,21,0,0,1-3.71-5.69.57.57,0,0,1-.07-.39.65.65,0,0,1,.12.11,20.33,20.33,0,0,0,2.71,2.45A27.55,27.55,0,0,0,21.12,84a35.24,35.24,0,0,0,8.76,2.56,39.2,39.2,0,0,0,4.45.44,50.87,50.87,0,0,0,5.79-.13,55.85,55.85,0,0,0,7.17-1.07c1.65-.35,3.3-.76,4.91-1.27L53.9,84a95.62,95.62,0,0,0,16.66-7.37c.21-.11.18-.16,0-.27l-3.11-2L66.76,74a9.44,9.44,0,0,0,1-.75.88.88,0,0,1,.59-.18,2.18,2.18,0,0,1,.71.18c1.29.54,2.61,1,3.93,1.52a1,1,0,0,0,1.08-.14c1.36-1,2.75-2.07,4.13-3.1l1.48-1.12c.17-.12.2-.23,0-.35l-.22-.14L64.19,60.16c-.31-.2-.3-.19,0-.43a1.59,1.59,0,0,1,1.77-.4c1.41.61,2.84,1.12,4.28,1.65.79.29,1.56.66,2.37.89a1.35,1.35,0,0,0,1.34-.22A9.06,9.06,0,0,1,74.8,61c.39-.27.5-.26.78.13a2.13,2.13,0,0,1,.16.25.35.35,0,0,1-.13.49c-.27.2-.53.42-.8.63-.11.09-.16.15,0,.22l3.94,1.49a1,1,0,0,0,1-.19c.42-.36.86-.69,1.28-1,.11-.09.17-.09.25,0a7.68,7.68,0,0,0,.47.65c.15.18.11.27-.06.4-.35.26-.69.55-1,.84l.19.08c1.21.46,2.42.9,3.63,1.37a.88.88,0,0,0,.86-.08l2.76-1.66a9.53,9.53,0,0,1,3.68-1.43.91.91,0,0,1,1,1,2.24,2.24,0,0,1-.65,1.24L89.06,68.3l-1.4,1.25a.57.57,0,0,0-.21.52c0,.72.07,1.44.11,2.16s.1,1.27.16,1.91a.39.39,0,0,0,.24-.09c.35-.21.69-.42,1-.65.12-.08.19-.08.27.06s.27.42.41.63a.15.15,0,0,1,0,.22,1.52,1.52,0,0,1-.54.41,2.08,2.08,0,0,0-1.27,2.35c.14,1,.26,2,.3,3.07,0,.08,0,.19,0,.23s.17,0,.23-.08c.32-.22.65-.42,1-.61.1-.06.13-.07.2,0s.35.48.53.71.07.13,0,.2c-.45.3-.89.63-1.36.92a.9.9,0,0,0-.46.81c0,.51,0,1,.07,1.54.07,1,.13,2,.21,3,0,.68.13,1.36.19,2a4.39,4.39,0,0,1,.06,1c-.11.7-.63,1-1.18,1.32-.12.06-.1,0-.12-.1-.28-1-.55-1.92-.83-2.88q-2.13-7.28-4.25-14.54c-.12-.39-.12-.39-.47-.17C80,74.65,78.13,75.84,76.19,77a.79.79,0,0,0-.45.81c0,.33,0,.67.07,1,0,.52.08,1,.11,1.56,0,.89.13,1.78.19,2.67a.47.47,0,0,1-.21.47c-.35.24-.7.48-1,.74-.16.12-.22.12-.28-.1-.48-1.64-1-3.27-1.44-4.9-.06-.21-.1-.29-.3-.11-.62.57-1.26,1.11-1.87,1.68a59.69,59.69,0,0,1-8,6.18c-1,.63-2,1.2-3,1.81-.66.35-1.32.72-2,1.06a74,74,0,0,1-17.31,6.47,66,66,0,0,1-7.26,1.26,56.06,56.06,0,0,1-6.07.4,42.73,42.73,0,0,1-7-.51A33.89,33.89,0,0,1,14.09,96a.58.58,0,0,0-.33-.09c0,.11.06.2.09.29a50.14,50.14,0,0,0,8,14.72,51.34,51.34,0,0,0,4.67,5.22.27.27,0,0,0,.29.09l1.61-.37c4.73-1,9.41-2.24,14.07-3.54,4.08-1.13,8.14-2.33,12.16-3.64,1.81-.58,3.61-1.18,5.4-1.83l.2-.06q3.28-1.16,6.52-2.43c2.9-1.15,5.79-2.34,8.62-3.66,1.43-.67,2.88-1.31,4.3-2,2.41-1.19,4.8-2.42,7.15-3.74.77-.43,1.55-.86,2.31-1.31,1.44-.85,2.87-1.7,4.28-2.59a81.9,81.9,0,0,0,7.8-5.52,58,58,0,0,0,7.17-6.76,27.36,27.36,0,0,0,3.61-5A.63.63,0,0,0,112.06,73.31Z"/><path class="cls-1" d="M160,1.85V1.49h-.37C159.93,1.49,160,1.56,160,1.85Z"/><path class="cls-1" d="M135.23,50h-6.72V69.31h-2.72V50h-6.71V47.75h16.15Z"/><path class="cls-1" d="M152.33,69.31h-2.67V60.44c0-3.21-1.28-4.81-3.86-4.81A4.35,4.35,0,0,0,142.52,57a4.92,4.92,0,0,0-1.33,3.57v8.72h-2.66V46.52h2.66v9.95h.07a6.12,6.12,0,0,1,5.45-2.92c3.74,0,5.62,2.09,5.62,6.27Z"/><path class="cls-1" d="M170.7,62.23H159a5.53,5.53,0,0,0,1.5,4,5.34,5.34,0,0,0,3.93,1.4,8.59,8.59,0,0,0,5.16-1.71v2.31a10.16,10.16,0,0,1-5.8,1.48,7.29,7.29,0,0,1-5.53-2.1,8.18,8.18,0,0,1-2-5.9,8.07,8.07,0,0,1,2.19-5.86,7.35,7.35,0,0,1,5.47-2.26,6.5,6.5,0,0,1,5,2,7.73,7.73,0,0,1,1.78,5.42ZM168,60.14a4.79,4.79,0,0,0-1.11-3.33,3.93,3.93,0,0,0-3-1.18,4.48,4.48,0,0,0-3.2,1.24A5.46,5.46,0,0,0,159,60.14Z"/><path class="cls-1" d="M134.94,106.25H121.08V84.69h5.24v17.62h8.62Z"/><path class="cls-1" d="M140.17,88.42a3.12,3.12,0,0,1-2.13-.71,2.24,2.24,0,0,1-.83-1.75,2.17,2.17,0,0,1,.83-1.75,3.72,3.72,0,0,1,4.26,0,2.16,2.16,0,0,1,.82,1.75,2.2,2.2,0,0,1-.82,1.77A3.19,3.19,0,0,1,140.17,88.42Zm2.53,17.83h-5.13V90.86h5.13Z"/><path class="cls-1" d="M152.21,104.46h-.06v1.79H147V83.46h5.13v9.71h.06a6.24,6.24,0,0,1,5.41-2.69,6.12,6.12,0,0,1,4.95,2,8.33,8.33,0,0,1,1.74,5.59,9.08,9.08,0,0,1-2,6.18,6.86,6.86,0,0,1-5.43,2.33A5.36,5.36,0,0,1,152.21,104.46ZM152.07,98v1.58A3.41,3.41,0,0,0,153,102a3.1,3.1,0,0,0,2.37,1,3.24,3.24,0,0,0,2.72-1.25,5.78,5.78,0,0,0,1-3.56,4.55,4.55,0,0,0-.89-3,3.07,3.07,0,0,0-2.52-1.08,3.4,3.4,0,0,0-2.56,1.07A3.85,3.85,0,0,0,152.07,98Z"/><path class="cls-1" d="M182.57,99.91H171.72q.27,3.34,4.56,3.35a9.51,9.51,0,0,0,4.83-1.2v3.43a13.58,13.58,0,0,1-6,1.14,8.81,8.81,0,0,1-6.25-2.07,7.46,7.46,0,0,1-2.23-5.76,7.92,7.92,0,0,1,2.4-6.08A8.38,8.38,0,0,1,175,90.48a7.61,7.61,0,0,1,5.63,2,7.39,7.39,0,0,1,2,5.43ZM177.81,97q0-3.3-2.89-3.3a2.84,2.84,0,0,0-2.13.94,4.16,4.16,0,0,0-1.1,2.36Z"/><path class="cls-1" d="M196.46,95.14a4.77,4.77,0,0,0-2.16-.46,3.23,3.23,0,0,0-2.61,1.13,4.69,4.69,0,0,0-.94,3.09v7.35h-5.13V90.86h5.13v2.86h.06a4.39,4.39,0,0,1,4.38-3.13,3.53,3.53,0,0,1,1.27.18Z"/><path class="cls-1" d="M208.89,106.07a8.05,8.05,0,0,1-3.42.56q-5.41,0-5.42-5.22v-7h-2.7v-3.5h2.7V87.54l5.11-1.36v4.68h3.73v3.5h-3.73v6.23c0,1.6.69,2.4,2.06,2.4a3.67,3.67,0,0,0,1.67-.43Z"/><path class="cls-1" d="M227.61,90.86l-6.75,16.63q-2.45,6-7.34,6a10.15,10.15,0,0,1-3.07-.39v-3.78a4.6,4.6,0,0,0,2.23.55,2.78,2.78,0,0,0,2.76-1.73l.87-1.91-6.75-15.36h5.68l3.1,9.36a11.28,11.28,0,0,1,.46,2.06h.06a13.74,13.74,0,0,1,.54-2l3.13-9.4Z"/><path class="cls-1" d="M269.8,84.69l-6.15,21.56h-5.82L254,92.42A10.88,10.88,0,0,1,253.6,90h-.07a12.6,12.6,0,0,1-.42,2.42l-4,13.83H243.1L237,84.69h5.73L246,99.05a15.65,15.65,0,0,1,.3,2.47h.1a11,11,0,0,1,.47-2.53l4.22-14.3h5.62l3.81,14.48a16.82,16.82,0,0,1,.38,2.32H261a14.56,14.56,0,0,1,.34-2.41l3.22-14.39Z"/><path class="cls-1" d="M286.08,106.25h-4.85V104h-.07a5.5,5.5,0,0,1-5,2.59,5.43,5.43,0,0,1-3.81-1.27A4.39,4.39,0,0,1,271,102q0-4.48,5.73-5.17l4.51-.56c0-1.68-1-2.52-3-2.52a10.68,10.68,0,0,0-5.65,1.63V91.78a13.65,13.65,0,0,1,2.93-.91,16.64,16.64,0,0,1,3.39-.39q7.11,0,7.11,6.57ZM281.26,100V99l-3,.36c-1.67.2-2.5.9-2.5,2.09a1.65,1.65,0,0,0,.61,1.33,2.42,2.42,0,0,0,1.65.52,3.18,3.18,0,0,0,2.35-.92A3.24,3.24,0,0,0,281.26,100Z"/><path class="cls-1" d="M306,90.86l-6.75,16.63q-2.43,6-7.34,6a10.08,10.08,0,0,1-3.06-.39v-3.78a4.57,4.57,0,0,0,2.22.55,2.78,2.78,0,0,0,2.76-1.73l.88-1.91-6.76-15.36h5.68l3.1,9.36a11.28,11.28,0,0,1,.46,2.06h.06a13.74,13.74,0,0,1,.54-2l3.13-9.4Z"/></svg>