<svg id="Layer_1" data-name="Layer 1" xmlns="http://www.w3.org/2000/svg" viewBox="0 0 320 160"><defs><style>.cls-1{fill:#dcb870;}</style></defs><path class="cls-1" d="M184.42,64.06q-3.24,1.55-6.55,2.91c-4,1.65-8.05,3.11-12.16,4.42-3,1-6.09,1.85-9.17,2.66-.84.23-1.69.44-2.53.66l-.13,0c-1.22.31-2.44.59-3.67.87q-2.55.57-5.13,1.06c-1.67.31-3.35.6-5,.87-.77.13-1.53.26-2.29.36-1.67.21-3.34.36-5,.46-1.21.08-2.43.13-3.64.19l-2.66.08-.52,0c.1.33.1.33.42.33l2.28.08c1.27.05,2.55.1,3.82.11h0c.35,0,.69,0,1,0h.27c1.89,0,3.78,0,5.68-.07a.49.49,0,0,1,.29.08,34.87,34.87,0,0,0,5.59,3.15,35.87,35.87,0,0,0,15.56,3.16c1,0,2.07-.09,3.1-.19a35.89,35.89,0,0,0,16.45-6,36.33,36.33,0,0,0,4.28-3.43c.58-.54,1.13-1.1,1.67-1.67A35.14,35.14,0,0,0,190,69.67a35.64,35.64,0,0,0,4.75-10.24c.1-.37.19-.74.29-1.14l-.17.1c-.87.54-1.75,1.07-2.64,1.57C189.71,61.43,187.09,62.79,184.42,64.06Z"/><path class="cls-1" d="M195.81,45l-.12-.77a36.09,36.09,0,0,0-1.25-5.3,36,36,0,0,0-12.61-17.75,36.2,36.2,0,0,0-14.05-6.42,34.69,34.69,0,0,0-4.63-.68C162,14,160.88,14,159.75,14a36.5,36.5,0,0,0-3.77.23c-.91.11-1.82.24-2.72.43a35.25,35.25,0,0,0-9.57,3.3,36,36,0,0,0-13.25,11.66A35.56,35.56,0,0,0,125.83,39a36,36,0,0,0-1.62,9.49,37.07,37.07,0,0,0,.07,3.8.71.71,0,0,0,.1.31,9.36,9.36,0,0,0,1.31,1.63A12.64,12.64,0,0,0,129.86,57a24,24,0,0,0,7.63,1.66,31.94,31.94,0,0,0,3.79,0,40.76,40.76,0,0,0,4.55-.46,43.77,43.77,0,0,0,6.87-1.65c1.28-.42,2.54-.87,3.78-1.4.63-.27,1.27-.51,1.89-.8l.07,0A45.86,45.86,0,0,0,167.77,49a.45.45,0,0,0,.18-.27.91.91,0,0,0-.82-1,1.25,1.25,0,0,0-.75.27c-1.72,1-3.42,2.08-5.19,3-.93.5-1.88,1-2.82,1.4-.6.26-1.19.53-1.79.78a62,62,0,0,1-6.22,2.19A40.91,40.91,0,0,1,142.69,57a31,31,0,0,1-4.52.11,18.54,18.54,0,0,1-5-1,13.3,13.3,0,0,1-5.46-3.5,15,15,0,0,1-2.63-4,.38.38,0,0,1,0-.28l.09.08A13.78,13.78,0,0,0,127,50.11a20,20,0,0,0,4.2,2.49,25.07,25.07,0,0,0,6.22,1.81,24,24,0,0,0,3.16.31,35.25,35.25,0,0,0,4.11-.09,37.85,37.85,0,0,0,5.09-.75c1.18-.26,2.34-.55,3.49-.91l1.21-.37a67.37,67.37,0,0,0,11.82-5.23c.15-.08.13-.11,0-.19l-2.21-1.41-.49-.32a7,7,0,0,0,.74-.53.54.54,0,0,1,.41-.12,1.28,1.28,0,0,1,.51.13c.92.38,1.85.72,2.79,1.08a.73.73,0,0,0,.77-.11c1-.74,1.95-1.47,2.92-2.2l1.06-.79c.12-.09.14-.17,0-.25l-.15-.1-10.86-6.89c-.22-.14-.22-.14,0-.31a1.12,1.12,0,0,1,1.26-.28c1,.43,2,.79,3,1.16.57.21,1.11.48,1.69.64a1,1,0,0,0,.95-.15,6.74,6.74,0,0,1,.62-.47c.28-.19.36-.18.56.09l.11.18a.24.24,0,0,1-.09.35c-.2.14-.38.3-.57.44s-.12.11,0,.16l2.79,1.06a.68.68,0,0,0,.73-.14l.91-.73c.07-.07.11-.07.17,0a3,3,0,0,0,.34.46c.1.12.07.19,0,.28s-.49.39-.75.6l.14.06,2.58,1a.61.61,0,0,0,.61-.06l2-1.18a6.61,6.61,0,0,1,2.61-1,.65.65,0,0,1,.71.73,1.54,1.54,0,0,1-.46.88l-2.19,2c-.33.3-.66.6-1,.89a.42.42,0,0,0-.15.37c0,.51,0,1,.08,1.53s.08.91.11,1.36a.23.23,0,0,0,.18-.07q.36-.21.72-.45c.09-.06.13-.06.19,0a5,5,0,0,0,.29.45c0,.06,0,.11,0,.16a1,1,0,0,1-.38.29,1.48,1.48,0,0,0-.9,1.67c.1.72.18,1.45.21,2.18,0,.06,0,.13,0,.17S179,50,179,50c.23-.16.46-.3.7-.44.07,0,.09-.05.14,0s.25.34.38.5,0,.1,0,.14c-.32.22-.63.45-1,.66a.61.61,0,0,0-.33.57c0,.37,0,.73.05,1.09l.15,2.1c0,.49.1,1,.14,1.45a3.11,3.11,0,0,1,0,.68,1.33,1.33,0,0,1-.84.94c-.08,0-.07,0-.08-.06l-.6-2q-1.5-5.16-3-10.32c-.09-.28-.09-.28-.33-.13-1.37.84-2.72,1.68-4.1,2.49a.54.54,0,0,0-.32.57c0,.24,0,.48,0,.72s.06.74.08,1.11c0,.63.09,1.26.13,1.89a.33.33,0,0,1-.15.34l-.74.52c-.11.09-.15.09-.2-.07-.33-1.16-.68-2.32-1-3.48,0-.15-.07-.2-.21-.07-.44.4-.89.78-1.33,1.19a42.85,42.85,0,0,1-5.71,4.39c-.69.44-1.41.85-2.11,1.28-.47.25-.93.51-1.4.75a52.49,52.49,0,0,1-12.29,4.6,48,48,0,0,1-5.16.89,38.82,38.82,0,0,1-4.31.28,30,30,0,0,1-5-.36,23.74,23.74,0,0,1-4.4-1.07A.44.44,0,0,0,126,61c0,.08,0,.14.06.2a35.83,35.83,0,0,0,5.65,10.46,36.38,36.38,0,0,0,3.32,3.7.18.18,0,0,0,.21.06l1.14-.26c3.35-.73,6.68-1.59,10-2.51,2.89-.81,5.77-1.66,8.63-2.58,1.28-.42,2.56-.85,3.83-1.31l.14,0c1.56-.55,3.1-1.12,4.63-1.73,2.06-.81,4.11-1.66,6.12-2.59,1-.48,2-.93,3-1.43,1.72-.85,3.42-1.72,5.08-2.66.55-.31,1.1-.61,1.64-.93,1-.61,2-1.21,3-1.84a57.72,57.72,0,0,0,5.54-3.92,41.25,41.25,0,0,0,5.09-4.8,19.14,19.14,0,0,0,2.56-3.56A.45.45,0,0,0,195.81,45Z"/><path class="cls-1" d="M150.34,96.34h-6.72v19.27h-2.73V96.34h-6.7V94.05h16.15Z"/><path class="cls-1" d="M167.43,115.61h-2.66v-8.87q0-4.81-3.86-4.81a4.35,4.35,0,0,0-3.28,1.39,5,5,0,0,0-1.33,3.57v8.72h-2.66V92.82h2.66v10h.06a6.17,6.17,0,0,1,5.46-2.92q5.61,0,5.61,6.27Z"/><path class="cls-1" d="M185.81,108.53H174.07a5.51,5.51,0,0,0,1.5,4,5.37,5.37,0,0,0,3.92,1.4,8.54,8.54,0,0,0,5.17-1.72v2.32a10.26,10.26,0,0,1-5.8,1.47,7.29,7.29,0,0,1-5.53-2.1,9.24,9.24,0,0,1,.18-11.75A7.33,7.33,0,0,1,179,99.85a6.49,6.49,0,0,1,5,2,7.75,7.75,0,0,1,1.79,5.43Zm-2.73-2.09a4.77,4.77,0,0,0-1.11-3.32,3.93,3.93,0,0,0-3-1.19,4.49,4.49,0,0,0-3.2,1.25,5.44,5.44,0,0,0-1.62,3.26Z"/><path class="cls-1" d="M82.42,142.45H68.56V120.9H73.8v17.62h8.62Z"/><path class="cls-1" d="M87.65,124.62a3.12,3.12,0,0,1-2.13-.71,2.24,2.24,0,0,1-.83-1.75,2.18,2.18,0,0,1,.83-1.75,3.72,3.72,0,0,1,4.26,0,2.17,2.17,0,0,1,.82,1.75,2.2,2.2,0,0,1-.82,1.77A3.21,3.21,0,0,1,87.65,124.62Zm2.53,17.83H85.05V127.06h5.13Z"/><path class="cls-1" d="M99.69,140.67h-.07v1.78H94.5V119.66h5.12v9.72h.07a6.87,6.87,0,0,1,10.36-.65,8.4,8.4,0,0,1,1.73,5.59,9,9,0,0,1-2,6.18,6.84,6.84,0,0,1-5.42,2.33A5.38,5.38,0,0,1,99.69,140.67Zm-.15-6.5v1.58a3.46,3.46,0,0,0,.93,2.47,3.13,3.13,0,0,0,2.37,1,3.25,3.25,0,0,0,2.72-1.25,5.78,5.78,0,0,0,1-3.56,4.54,4.54,0,0,0-.88-3,3.08,3.08,0,0,0-2.53-1.08,3.37,3.37,0,0,0-2.55,1.07A3.86,3.86,0,0,0,99.54,134.17Z"/><path class="cls-1" d="M130,136.11H119.2c.17,2.24,1.69,3.35,4.56,3.35a9.45,9.45,0,0,0,4.82-1.2v3.43a13.52,13.52,0,0,1-6,1.14,8.85,8.85,0,0,1-6.25-2.07,7.47,7.47,0,0,1-2.22-5.76,7.92,7.92,0,0,1,2.4-6.08,8.35,8.35,0,0,1,5.91-2.24,7.62,7.62,0,0,1,5.63,2,7.4,7.4,0,0,1,2,5.43Zm-4.75-2.92c0-2.2-1-3.3-2.89-3.3a2.86,2.86,0,0,0-2.14.94,4.15,4.15,0,0,0-1.09,2.36Z"/><path class="cls-1" d="M143.94,131.34a4.77,4.77,0,0,0-2.16-.46,3.2,3.2,0,0,0-2.61,1.13,4.7,4.7,0,0,0-.95,3.09v7.35H133.1V127.06h5.12v2.86h.07a4.39,4.39,0,0,1,4.38-3.13,3.57,3.57,0,0,1,1.27.18Z"/><path class="cls-1" d="M156.37,142.27a8,8,0,0,1-3.42.56c-3.62,0-5.42-1.74-5.42-5.22v-7.05h-2.7v-3.5h2.7v-3.32l5.11-1.36v4.68h3.73v3.5h-3.73v6.23c0,1.6.69,2.4,2.06,2.4a3.67,3.67,0,0,0,1.67-.43Z"/><path class="cls-1" d="M175.09,127.06l-6.75,16.63q-2.44,6-7.34,6a10.1,10.1,0,0,1-3.07-.39v-3.79a4.57,4.57,0,0,0,2.22.55,2.78,2.78,0,0,0,2.76-1.73l.88-1.91L157,127.06h5.68l3.1,9.37a11,11,0,0,1,.45,2.06h.07a13.36,13.36,0,0,1,.53-2l3.14-9.4Z"/><path class="cls-1" d="M217.28,120.9l-6.16,21.55h-5.81l-3.86-13.83a10.33,10.33,0,0,1-.37-2.42H201a14.2,14.2,0,0,1-.42,2.42l-4,13.83h-6.06l-6.12-21.55h5.73l3.28,14.35a15.48,15.48,0,0,1,.31,2.47h.1a11.11,11.11,0,0,1,.47-2.53l4.22-14.29h5.62L208,135.37a15.65,15.65,0,0,1,.37,2.32h.07a14.71,14.71,0,0,1,.34-2.41L212,120.9Z"/><path class="cls-1" d="M233.56,142.45H228.7v-2.21h-.06a5.52,5.52,0,0,1-4.95,2.59,5.41,5.41,0,0,1-3.81-1.27,4.4,4.4,0,0,1-1.39-3.39q0-4.48,5.73-5.17l4.52-.56c0-1.68-1-2.52-3-2.52a10.61,10.61,0,0,0-5.65,1.64V128a14,14,0,0,1,2.93-.91,16.64,16.64,0,0,1,3.39-.39q7.11,0,7.11,6.57Zm-4.82-6.25v-1l-3,.36c-1.67.2-2.5.9-2.5,2.09a1.67,1.67,0,0,0,.6,1.33,2.45,2.45,0,0,0,1.65.52,3.19,3.19,0,0,0,2.36-.92A3.24,3.24,0,0,0,228.74,136.2Z"/><path class="cls-1" d="M253.44,127.06l-6.75,16.63q-2.44,6-7.34,6a10.15,10.15,0,0,1-3.07-.39v-3.79a4.6,4.6,0,0,0,2.23.55,2.78,2.78,0,0,0,2.76-1.73l.87-1.91-6.75-15.36h5.68l3.1,9.37a10.91,10.91,0,0,1,.46,2.06h.06a13.52,13.52,0,0,1,.54-2l3.13-9.4Z"/></svg>